<?xml version="1.0" standalone="no"?>
<!DOCTYPE svg PUBLIC "-//W3C//DTD SVG 20010904//EN"
 "http://www.w3.org/TR/2001/REC-SVG-20010904/DTD/svg10.dtd">
<svg version="1.0" xmlns="http://www.w3.org/2000/svg"
 width="700.000000pt" height="700.000000pt" viewBox="0 0 700.000000 700.000000"
 preserveAspectRatio="xMidYMid meet">
<metadata>
Created by potrace 1.11, written by Peter Selinger 2001-2013
</metadata>
<g transform="translate(0.000000,700.000000) scale(0.100000,-0.100000)"
fill="#000000" stroke="none">
<path d="M293 6983 c-61 -21 -136 -92 -162 -154 -61 -140 6 -308 146 -371 l48
-22 1147 0 c632 -1 1148 -4 1148 -7 0 -5 -405 -405 -1026 -1014 -304 -299
-993 -976 -1225 -1205 -245 -242 -261 -265 -262 -379 0 -115 73 -221 181 -261
52 -20 82 -20 1567 -20 1488 0 1515 0 1567 20 154 58 224 229 155 380 -36 79
-107 136 -192 155 -35 8 -383 11 -1172 10 -618 0 -1123 2 -1123 6 0 5 220 222
975 964 62 61 240 236 397 390 157 154 466 458 687 675 446 438 453 447 454
563 1 116 -72 225 -178 266 -49 19 -89 20 -1570 20 -1322 -1 -1526 -3 -1562
-16z"/>
<path d="M4460 4996 c-122 -40 -201 -144 -201 -262 0 -118 64 -219 169 -267
47 -21 54 -21 759 -22 392 -1 716 -5 720 -9 4 -4 2 -10 -4 -14 -6 -4 -217
-210 -469 -457 -251 -248 -509 -501 -573 -563 -469 -459 -554 -548 -578 -599
-72 -156 12 -339 179 -387 34 -10 278 -12 1118 -11 591 1 1089 5 1105 10 96
26 168 99 200 203 3 12 6 47 6 77 0 112 -80 221 -191 261 -14 4 -349 11 -745
14 l-720 5 40 39 c22 21 169 165 326 320 157 154 502 494 766 754 531 522 524
514 526 636 1 110 -59 203 -163 258 l-45 23 -1095 1 c-809 2 -1104 -1 -1130
-10z"/>
<path d="M1690 2181 c-106 -33 -190 -133 -202 -242 -15 -131 77 -265 206 -300
28 -8 205 -12 540 -12 l499 0 -199 -195 c-673 -658 -988 -971 -1005 -998 -101
-164 -10 -385 174 -424 36 -7 326 -10 922 -8 l870 3 46 23 c64 34 108 77 135
136 28 62 33 105 21 171 -12 67 -48 127 -103 169 -79 61 -72 60 -627 61 l-508
0 239 235 c949 934 959 944 982 994 61 135 2 296 -134 369 l-41 22 -895 2
c-492 1 -906 -2 -920 -6z"/>
</g>
</svg>
